PathFileType	4	(X/Y/Z)	/Users/itak/Documents/Research/Walk-IL/dataset/trc/00559_00009.trc
DataRate	CameraRate	NumFrames	NumMarkers	Units	OrigDataRate	OrigDataStartFrame	OrigNumFrames
100.000000	100.000000	4	53	mm	100.000000	168	337
Frame#	Time	RPSI			LPSI			L3			STRN			T10			C7			CLAV			RBAK			LBAK			LSHO			LUPA			LAEL			LAOL			LWTS			LWPS			LFRA			LIFD			LHPS			LHTS			RSHO			RUPA			RAEL			RAOL			RWTS			RWPS			RFRA			RIFD			RHTS			RHPS			RBHD			LFHD			RFHD			LBHD			LHIP			RHIP			RASI			LASI			LKNE			LTHI			LANK			LTIP			LTOE			LMT1			LMT5			LHEE			RKNE			RTHI			RANK			RTIP			RTOE			RMT1			RMT5			RHEE			
		X1	Y1	Z1	X2	Y2	Z2	X3	Y3	Z3	X4	Y4	Z4	X5	Y5	Z5	X6	Y6	Z6	X7	Y7	Z7	X8	Y8	Z8	X9	Y9	Z9	X10	Y10	Z10	X11	Y11	Z11	X12	Y12	Z12	X13	Y13	Z13	X14	Y14	Z14	X15	Y15	Z15	X16	Y16	Z16	X17	Y17	Z17	X18	Y18	Z18	X19	Y19	Z19	X20	Y20	Z20	X21	Y21	Z21	X22	Y22	Z22	X23	Y23	Z23	X24	Y24	Z24	X25	Y25	Z25	X26	Y26	Z26	X27	Y27	Z27	X28	Y28	Z28	X29	Y29	Z29	X30	Y30	Z30	X31	Y31	Z31	X32	Y32	Z32	X33	Y33	Z33	X34	Y34	Z34	X35	Y35	Z35	X36	Y36	Z36	X37	Y37	Z37	X38	Y38	Z38	X39	Y39	Z39	X40	Y40	Z40	X41	Y41	Z41	X42	Y42	Z42	X43	Y43	Z43	X44	Y44	Z44	X45	Y45	Z45	X46	Y46	Z46	X47	Y47	Z47	X48	Y48	Z48	X49	Y49	Z49	X50	Y50	Z50	X51	Y51	Z51	X52	Y52	Z52	X53	Y53	Z53	

169	1.68	-263.7949523925781	952.1550903320312	160.1758880615234	-223.1573181152344	965.6306762695312	33.30693435668945	-219.6540832519531	1066.742797851562	104.8132858276367	47.26491546630859	1210.084350585938	176.9811553955078	-199.8425903320312	1190.588500976562	111.7493667602539	-100.7748260498047	1451.270751953125	151.6869964599609	50.12594604492188	1322.158203125	179.3928527832031	-210.5433349609375	1343.018798828125	216.2855072021484	-121.2490386962891	1404.978637695312	50.90619277954102	-0.8029874563217163	1414.311279296875	0.9567003846168518	10.98716926574707	1299.3427734375	-90.22338104248047	59.03422546386719	1099.845092773438	-136.7773590087891	-33.44172286987305	1056.417358398438	-125.0938415527344	230.5927886962891	969.5325927734375	-5.822765827178955	241.4477233886719	916.2518310546875	-73.78770446777344	120.8845443725586	1041.51708984375	-120.4256439208984	324.2068176269531	849.500732421875	48.04366302490234	283.4097595214844	882.6009521484375	-46.70433044433594	298.3170166015625	928.67236328125	1.825854301452637	-82.77556610107422	1407.887817382812	315.5445861816406	-125.8526000976562	1350.258422851562	375.4227600097656	-194.5182495117188	1074.08984375	429.0774230957031	-248.9586029052734	1063.016357421875	398.3176879882812	-65.19964599609375	854.2501831054688	404.921630859375	-121.5950469970703	834.5031127929688	461.1410522460938	-189.9445953369141	1018.174560546875	437.5915832519531	-46.02043914794922	688.971435546875	424.2904357910156	-32.64253997802734	770.8367309570312	437.8218994140625	-97.79524993896484	766.4217529296875	474.0107421875	4.767603397369385	1612.34228515625	245.9538879394531	181.3907623291016	1597.539672851562	137.4294128417969	141.9307556152344	1594.891479492188	276.3767700195312	57.22013473510742	1612.191650390625	89.15108489990234	-62.59625625610352	888.5771484375	-53.02360153198242	-175.269287109375	877.9389038085938	309.23291015625	-79.46143341064453	909.6642456054688	278.195556640625	-0.1190334185957909	912.240966796875	14.13959217071533	13.87984275817871	448.0894470214844	65.53778839111328	-2.01460862159729	613.77392578125	5.870777606964111	-242.9710235595703	38.71762084960938	55.82505035400391	-134.1272735595703	229.4143218994141	51.54914093017578	-45.09173202514648	36.16117858886719	153.7374267578125	-124.7272796630859	43.83062744140625	173.5072174072266	-119.9295959472656	34.12009811401367	63.98913955688477	-321.04541015625	45.83370971679688	93.95955657958984	41.60324478149414	492.5276489257812	358.8982238769531	-93.19789123535156	751.2044677734375	339.8263854980469	-268.4230651855469	141.9302825927734	272.2649230957031	-6.224545001983643	359.5485229492188	336.7997131347656	-66.66268157958984	63.21794128417969	301.0149230957031	-110.787971496582	74.72186279296875	241.5948638916016	-160.8577575683594	94.60211181640625	329.9544372558594	-301.0070495605469	149.0879058837891	201.5921936035156	
170	1.69	-244.8134460449219	953.05712890625	165.8139953613281	-204.5823059082031	967.2257080078125	38.99853897094727	-201.5958862304688	1067.87060546875	109.8363800048828	64.40277099609375	1212.258422851562	183.78369140625	-181.8721771240234	1191.676147460938	116.2143936157227	-84.04102325439453	1452.786987304688	155.9469909667969	66.91226196289062	1324.369995117188	186.0939636230469	-194.0429992675781	1344.438354492188	219.4256744384766	-103.3765182495117	1406.3037109375	54.85482025146484	17.77556419372559	1415.844116210938	6.88456916809082	32.49146270751953	1300.774658203125	-83.36166381835938	84.98748779296875	1102.21484375	-127.5050964355469	-7.049325466156006	1057.06494140625	-118.1782760620117	255.5233612060547	976.0078735351562	8.37571907043457	269.1306762695312	922.4566650390625	-58.95548248291016	147.4183502197266	1045.223754882812	-109.3668212890625	350.6895141601562	858.462890625	65.42934417724609	311.1234741210938	889.8760986328125	-30.58361434936523	323.8043518066406	936.6056518554688	17.99899673461914	-67.92532348632812	1410.247802734375	320.2019348144531	-111.9330368041992	1353.135864257812	379.6990661621094	-183.3272552490234	1077.853271484375	434.0400085449219	-237.3262023925781	1067.037475585938	402.4469909667969	-54.86270904541016	857.2039184570312	412.8683166503906	-112.2502975463867	837.9483032226562	468.3291931152344	-179.3185119628906	1021.880554199219	442.9280090332031	-37.01263046264648	691.7681884765625	433.1470031738281	-23.34653854370117	773.618408203125	446.5691528320312	-89.06577301025391	769.788330078125	481.8678894042969	21.30425834655762	1614.594604492188	251.158447265625	197.9763031005859	1599.606567382812	142.7509307861328	158.5677795410156	1597.186401367188	281.749755859375	73.86723327636719	1614.2119140625	94.36102294921875	-44.94970321655273	890.307861328125	-48.55287933349609	-155.2244262695312	880.0935668945312	314.5691528320312	-59.69239807128906	911.5508422851562	282.88916015625	18.15885543823242	913.5758666992188	18.30214691162109	18.25301551818848	447.0458984375	66.93987274169922	8.127436637878418	613.6331176757812	9.123281478881836	-242.8179016113281	39.79544067382812	56.09461975097656	-132.8046722412109	230.3399505615234	52.04552841186523	-45.1290283203125	36.10458755493164	153.5863647460938	-124.5544052124023	43.93601226806641	173.4250793457031	-120.0569839477539	34.0773811340332	64.10885620117188	-320.9088439941406	48.16043472290039	94.45327758789062	71.11675262451172	501.2109985351562	367.0980224609375	-70.87350463867188	756.1572265625	345.7669982910156	-213.2818908691406	126.7809219360352	285.1116943359375	31.80707550048828	364.1442565917969	347.0169982910156	-6.130513191223145	65.13198089599609	314.9935302734375	-50.95138549804688	72.00490570068359	255.5220947265625	-102.7104949951172	89.20442199707031	343.7313842773438	-246.3980865478516	130.4531097412109	214.3636932373047	
171	1.7	-225.488037109375	954.2764282226562	171.6513519287109	-185.6892395019531	968.962890625	44.87937545776367	-183.1209716796875	1069.165771484375	114.8680572509766	81.79362487792969	1214.694580078125	190.5042266845703	-163.6012878417969	1192.963134765625	120.7275314331055	-67.18829345703125	1454.505493164062	160.3174438476562	83.85924530029297	1326.85400390625	192.7315368652344	-177.4063110351562	1345.97900390625	222.6733245849609	-85.45323944091797	1407.879516601562	58.93998336791992	36.29991149902344	1417.752075195312	12.83222103118896	53.68507385253906	1302.662841796875	-76.54454803466797	110.1742324829102	1105.009643554688	-118.2264556884766	18.64876556396484	1058.281127929688	-111.1082382202148	279.4900817871094	982.7728881835938	22.37432479858398	295.6412353515625	928.9102783203125	-44.22105026245117	173.059814453125	1049.318115234375	-98.35479736328125	376.2203674316406	867.7984619140625	82.53241729736328	337.6684265136719	897.4284057617188	-14.64809513092041	348.2236022949219	944.8197631835938	33.86962127685547	-52.87339019775391	1412.680419921875	324.8918151855469	-97.85851287841797	1356.112548828125	383.9620666503906	-172.2717742919922	1081.869506835938	438.8739929199219	-225.8427581787109	1071.249145507812	406.4232788085938	-44.47476577758789	860.5806884765625	420.7997741699219	-102.8481826782227	841.7440795898438	475.439453125	-168.8133087158203	1025.857177734375	448.148681640625	-27.71128082275391	695.0458374023438	442.0015258789062	-13.93855953216553	776.8809814453125	455.3600158691406	-80.21995544433594	773.5555419921875	489.6612243652344	37.84220504760742	1617.058959960938	256.4346313476562	214.5925903320312	1602.002563476562	148.1833648681641	175.2056427001953	1599.77197265625	287.2211608886719	90.54664611816406	1616.507202148438	99.65631103515625	-27.11026382446289	892.0736083984375	-43.95795440673828	-134.8279113769531	882.6235961914062	320.0949096679688	-39.60170364379883	913.5897827148438	287.6253051757812	36.68125915527344	914.9567260742188	22.55117225646973	22.42217254638672	446.5497741699219	68.41073608398438	18.16135025024414	613.823486328125	12.53742504119873	-242.5737152099609	41.11587142944336	56.29489517211914	-131.5088958740234	231.7079162597656	52.55216979980469	-45.17678070068359	36.07381057739258	153.4749755859375	-124.3428192138672	44.09316635131836	173.3518371582031	-120.1661987304688	34.03792953491211	64.26876831054688	-320.6754150390625	50.88614273071289	94.78507232666016	99.08163452148438	509.4052734375	374.8044128417969	-48.61813735961914	761.2412109375	351.6210632324219	-156.4960174560547	111.834098815918	297.927978515625	68.88836669921875	368.5295715332031	356.8188171386719	54.83391571044922	67.56032562255859	328.7523803710938	9.727588653564453	69.93582153320312	269.2261657714844	-43.59704208374023	84.10950469970703	357.3163146972656	-189.8657836914062	112.1247634887695	227.0799865722656	
172	1.71	-205.7938537597656	955.79443359375	177.6524200439453	-166.4465484619141	970.8247680664062	50.92845153808594	-164.1680908203125	1070.56787109375	119.8988494873047	99.44408416748047	1217.367553710938	197.1492919921875	-145.0139770507812	1194.413208007812	125.2909317016602	-50.22272109985352	1456.388549804688	164.80908203125	100.9763870239258	1329.5810546875	199.3101348876953	-160.6206207275391	1347.582397460938	226.0516052246094	-67.47963714599609	1409.669311523438	63.16928100585938	54.7742805480957	1419.989501953125	18.80495452880859	74.56963348388672	1304.9453125	-69.77790069580078	134.5446014404297	1108.125732421875	-109.0125427246094	43.58111953735352	1059.99267578125	-103.9136657714844	302.4811096191406	989.6781005859375	36.08029174804688	320.9722900390625	935.4788208007812	-29.70366096496582	197.769287109375	1053.67578125	-87.46427154541016	400.7395324707031	877.325439453125	99.24887847900391	363.0203247070312	905.0962524414062	0.9886823892593384	371.5707702636719	953.149169921875	49.34061431884766	-37.61810302734375	1415.150756835938	329.6259460449219	-83.62891387939453	1359.151489257812	388.2266235351562	-161.3057250976562	1086.081420898438	443.5452270507812	-214.4341125488281	1075.600219726562	410.2174072265625	-33.98925399780273	864.3030395507812	428.7447204589844	-93.35885620117188	845.8284912109375	482.4671325683594	-158.3655395507812	1030.048828125	453.2159423828125	-18.09190559387207	698.7357788085938	450.8915710449219	-4.38331127166748	780.5531616210938	464.2215881347656	-71.2296142578125	777.6514282226562	497.3966674804688	54.37882232666016	1619.701171875	261.7852478027344	231.2313385009766	1604.683959960938	153.7141876220703	191.8318634033203	1602.606689453125	292.7738952636719	107.2405700683594	1619.038330078125	105.0363998413086	-9.034976959228516	893.8331298828125	-39.21355056762695	-114.1125259399414	885.46044921875	325.7868347167969	-19.18619155883789	915.7543334960938	292.4475402832031	55.46441650390625	916.3413696289062	26.95264434814453	26.52636528015137	446.5964660644531	69.90857696533203	28.1327953338623	614.3167724609375	16.06587600708008	-242.2084197998047	42.72356796264648	56.37873077392578	-130.1197967529297	233.5378265380859	53.02336883544922	-45.22228240966797	36.07312393188477	153.3884735107422	-124.0723190307617	44.33411026000977	173.2587432861328	-120.2299041748047	34.00024795532227	64.44580841064453	-320.2999877929688	54.07223892211914	94.86640930175781	125.4513549804688	516.8468627929688	382.037109375	-26.49754905700684	766.2955932617188	357.4048461914062	-98.16878509521484	97.50177001953125	310.7298889160156	104.8997955322266	372.6307678222656	366.22607421875	116.0486526489258	70.41641998291016	342.3765869140625	71.03929901123047	68.59581756591797	282.7673034667969	16.37682723999023	79.38133239746094	370.747314453125	-131.5366973876953	94.67971801757812	239.7594299316406	
